<?xml version="1.0" encoding="UTF-8"?>
<svg xmlns="http://www.w3.org/2000/svg" xmlns:xlink="http://www.w3.org/1999/xlink" width="79px" height="44px" viewBox="0 0 78 44" version="1.1">
<g id="surface1">
<path style=" stroke:none;fill-rule:nonzero;fill:rgb(0%,0%,0%);fill-opacity:1;" d="M 0 0 C 25.738281 0 51.480469 0 78 0 C 78 14.519531 78 29.039062 78 44 C 52.261719 44 26.519531 44 0 44 C 0 29.480469 0 14.960938 0 0 Z M 0 0 "/>
<path style=" stroke:none;fill-rule:nonzero;fill:rgb(94.117647%,94.117647%,94.117647%);fill-opacity:1;" d="M 50.503906 17.5625 C 51.558594 18.3125 52.460938 19.257812 53.039062 20.429688 C 53.171875 21.871094 53.238281 23.148438 52.617188 24.472656 C 51.375 25.824219 50.339844 26.734375 48.441406 26.8125 C 46.996094 26.796875 46.054688 26.367188 44.980469 25.40625 C 44.003906 24.144531 43.582031 23.140625 43.605469 21.527344 C 43.777344 20.179688 44.40625 19.15625 45.371094 18.234375 C 47.046875 17.136719 48.574219 16.929688 50.503906 17.5625 Z M 50.503906 17.5625 "/>
<path style=" stroke:none;fill-rule:nonzero;fill:rgb(93.725491%,93.725491%,93.725491%);fill-opacity:1;" d="M 56.941406 17.546875 C 60.839844 17.546875 60.839844 17.546875 62.140625 18.332031 C 62.804688 19.226562 62.777344 20.128906 62.660156 21.214844 C 62.324219 21.574219 61.976562 21.925781 61.621094 22.261719 C 61.691406 23.296875 62.332031 23.996094 62.9375 24.800781 C 63.960938 26.167969 63.960938 26.167969 63.960938 26.453125 C 63.125 26.558594 63.125 26.558594 62.140625 26.453125 C 61.636719 25.878906 61.304688 25.417969 60.9375 24.765625 C 60.582031 24.152344 60.226562 23.617188 59.800781 23.046875 C 59.371094 22.960938 58.941406 22.875 58.5 22.785156 C 58.5 23.996094 58.5 25.207031 58.5 26.453125 C 57.984375 26.453125 57.46875 26.453125 56.941406 26.453125 C 56.941406 23.515625 56.941406 20.574219 56.941406 17.546875 Z M 56.941406 17.546875 "/>
<path style=" stroke:none;fill-rule:nonzero;fill:rgb(0.784314%,0.784314%,0.784314%);fill-opacity:1;" d="M 50.246094 19.054688 C 51.089844 19.75 51.414062 20.222656 51.566406 21.308594 C 51.589844 22.808594 51.476562 23.71875 50.441406 24.882812 C 49.414062 25.535156 48.597656 25.449219 47.425781 25.304688 C 46.496094 25.066406 46.058594 24.597656 45.5 23.832031 C 45.121094 22.695312 45.113281 21.667969 45.433594 20.511719 C 45.890625 19.660156 46.378906 19.027344 47.289062 18.660156 C 48.472656 18.519531 49.160156 18.464844 50.246094 19.054688 Z M 50.246094 19.054688 "/>
<path style=" stroke:none;fill-rule:nonzero;fill:rgb(94.509804%,94.509804%,94.509804%);fill-opacity:1;" d="M 22.878906 17.546875 C 26.78125 17.546875 26.78125 17.546875 28.078125 18.332031 C 28.6875 18.945312 28.84375 19.273438 28.972656 20.132812 C 28.828125 21.179688 28.492188 21.71875 27.820312 22.523438 C 26.6875 23.238281 25.472656 23.085938 24.179688 23.046875 C 24.179688 24.171875 24.179688 25.292969 24.179688 26.453125 C 23.75 26.453125 23.320312 26.453125 22.878906 26.453125 C 22.878906 23.515625 22.878906 20.574219 22.878906 17.546875 Z M 22.878906 17.546875 "/>
<path style=" stroke:none;fill-rule:nonzero;fill:rgb(90.588236%,90.588236%,90.588236%);fill-opacity:1;" d="M 32.5 17.546875 C 33.015625 17.546875 33.53125 17.546875 34.058594 17.546875 C 34.058594 18.671875 34.058594 19.792969 34.058594 20.953125 C 35.519531 20.953125 36.976562 20.953125 38.480469 20.953125 C 38.480469 19.828125 38.480469 18.707031 38.480469 17.546875 C 38.996094 17.546875 39.507812 17.546875 40.039062 17.546875 C 40.039062 20.484375 40.039062 23.425781 40.039062 26.453125 C 39.523438 26.453125 39.011719 26.453125 38.480469 26.453125 C 38.480469 25.070312 38.480469 23.6875 38.480469 22.261719 C 37.019531 22.261719 35.5625 22.261719 34.058594 22.261719 C 34.058594 23.644531 34.058594 25.027344 34.058594 26.453125 C 33.546875 26.453125 33.03125 26.453125 32.5 26.453125 C 32.5 23.515625 32.5 20.574219 32.5 17.546875 Z M 32.5 17.546875 "/>
<path style=" stroke:none;fill-rule:nonzero;fill:rgb(94.509804%,94.509804%,94.509804%);fill-opacity:1;" d="M 69.941406 17.546875 C 70.539062 17.546875 71.140625 17.546875 71.761719 17.546875 C 74.878906 25.535156 74.878906 25.535156 74.878906 26.453125 C 74.363281 26.453125 73.851562 26.453125 73.320312 26.453125 C 72.992188 25.691406 72.800781 25.195312 72.800781 24.355469 C 71.597656 24.355469 70.398438 24.355469 69.160156 24.355469 C 69.074219 24.789062 68.988281 25.222656 68.898438 25.667969 C 68.769531 26.054688 68.769531 26.054688 68.640625 26.453125 C 68.125 26.453125 67.609375 26.453125 67.078125 26.453125 C 68.023438 23.515625 68.96875 20.574219 69.941406 17.546875 Z M 69.941406 17.546875 "/>
<path style=" stroke:none;fill-rule:nonzero;fill:rgb(93.333334%,93.333334%,93.333334%);fill-opacity:1;" d="M 12.480469 17.546875 C 14.367188 17.546875 16.253906 17.546875 18.199219 17.546875 C 18.199219 17.980469 18.199219 18.410156 18.199219 18.855469 C 16.828125 18.855469 15.453125 18.855469 14.039062 18.855469 C 14.039062 19.636719 14.039062 20.414062 14.039062 21.214844 C 14.984375 21.214844 15.925781 21.214844 16.898438 21.214844 C 16.898438 21.558594 16.898438 21.90625 16.898438 22.261719 C 15.957031 22.261719 15.011719 22.261719 14.039062 22.261719 C 14.039062 23.210938 14.039062 24.164062 14.039062 25.144531 C 15.414062 25.144531 16.785156 25.144531 18.199219 25.144531 C 18.199219 25.574219 18.199219 26.007812 18.199219 26.453125 C 16.3125 26.453125 14.425781 26.453125 12.480469 26.453125 C 12.480469 23.515625 12.480469 20.574219 12.480469 17.546875 Z M 12.480469 17.546875 "/>
<path style=" stroke:none;fill-rule:nonzero;fill:rgb(94.117647%,94.117647%,94.117647%);fill-opacity:1;" d="M 6.761719 17.285156 C 7.394531 17.546875 7.394531 17.546875 7.800781 17.808594 C 7.714844 18.242188 7.628906 18.671875 7.539062 19.117188 C 7.378906 19.101562 7.214844 19.082031 7.046875 19.0625 C 6.832031 19.039062 6.621094 19.011719 6.402344 18.988281 C 6.191406 18.964844 5.980469 18.941406 5.761719 18.914062 C 5.207031 18.847656 5.207031 18.847656 4.679688 18.855469 C 4.78125 19.59375 4.851562 20.050781 5.199219 20.691406 C 5.769531 21.097656 6.335938 21.386719 6.96875 21.675781 C 7.632812 22.054688 7.933594 22.390625 8.320312 23.046875 C 8.488281 24.371094 8.488281 24.371094 8.320312 25.144531 C 7.753906 25.847656 7.304688 26.308594 6.5 26.714844 C 5.214844 26.777344 4.292969 26.78125 3.121094 26.191406 C 3.292969 25.757812 3.464844 25.328125 3.640625 24.882812 C 3.820312 24.902344 4.003906 24.925781 4.191406 24.949219 C 4.425781 24.972656 4.664062 25 4.90625 25.027344 C 5.144531 25.054688 5.378906 25.082031 5.621094 25.109375 C 6.246094 25.195312 6.246094 25.195312 6.761719 24.882812 C 6.863281 24.257812 6.863281 24.257812 6.761719 23.570312 C 6.226562 23.117188 6.226562 23.117188 5.523438 22.785156 C 4.488281 22.207031 3.707031 21.765625 3.121094 20.691406 C 2.964844 19.875 2.949219 19.390625 3.394531 18.679688 C 4.46875 17.335938 5.078125 17.199219 6.761719 17.285156 Z M 6.761719 17.285156 "/>
<path style=" stroke:none;fill-rule:nonzero;fill:rgb(0.784314%,0.784314%,0.784314%);fill-opacity:1;" d="M 24.441406 18.855469 C 24.808594 18.839844 25.179688 18.824219 25.5625 18.808594 C 25.875 18.792969 25.875 18.792969 26.191406 18.78125 C 26.78125 18.855469 26.78125 18.855469 27.238281 19.210938 C 27.558594 19.644531 27.558594 19.644531 27.65625 20.296875 C 27.539062 21.078125 27.394531 21.261719 26.78125 21.738281 C 26.191406 21.816406 26.191406 21.816406 25.5625 21.789062 C 25.191406 21.769531 24.820312 21.753906 24.441406 21.738281 C 24.441406 20.789062 24.441406 19.835938 24.441406 18.855469 Z M 24.441406 18.855469 "/>
<path style=" stroke:none;fill-rule:nonzero;fill:rgb(3.137255%,3.137255%,3.137255%);fill-opacity:1;" d="M 58.5 18.59375 C 58.875 18.628906 59.25 18.660156 59.636719 18.695312 C 59.953125 18.722656 59.953125 18.722656 60.277344 18.75 C 60.839844 18.855469 60.839844 18.855469 61.359375 19.382812 C 61.425781 20.167969 61.425781 20.167969 61.359375 20.953125 C 60.839844 21.476562 60.839844 21.476562 60.277344 21.527344 C 59.683594 21.511719 59.09375 21.492188 58.5 21.476562 C 58.5 20.527344 58.5 19.574219 58.5 18.59375 Z M 58.5 18.59375 "/>
<path style=" stroke:none;fill-rule:nonzero;fill:rgb(2.352941%,2.352941%,2.352941%);fill-opacity:1;" d="M 70.71875 19.117188 C 71.277344 19.964844 71.507812 20.6875 71.792969 21.65625 C 71.882812 21.964844 71.976562 22.273438 72.070312 22.59375 C 72.140625 22.828125 72.207031 23.066406 72.28125 23.308594 C 71.421875 23.308594 70.5625 23.308594 69.679688 23.308594 C 69.835938 21.828125 70.21875 20.515625 70.71875 19.117188 Z M 70.71875 19.117188 "/>
</g>
</svg>
